<mxfile host="app.diagrams.net" modified="2021-03-30T08:00:09.984Z" agent="5.0 (Windows NT 10.0; Win64; x64) AppleWebKit/537.36 (KHTML, like Gecko) Chrome/89.0.4389.90 Safari/537.36 Edg/89.0.774.63" etag="3b8Z4FGh1-EVzZnPOrWq" version="14.5.3" type="github">
  <diagram name="Page-1" id="9361dd3d-8414-5efd-6122-117bd74ce7a7">
    <mxGraphModel dx="1964" dy="1014" grid="1" gridSize="10" guides="1" tooltips="1" connect="1" arrows="1" fold="1" page="0" pageScale="1.5" pageWidth="826" pageHeight="1169" background="#ffffff" math="0" shadow="0">
      <root>
        <mxCell id="0" />
        <mxCell id="1" parent="0" />
        <mxCell id="69" value="" style="fillColor=#DEE8FF;strokeColor=none" parent="1" vertex="1">
          <mxGeometry x="-110" width="1130" height="800" as="geometry" />
        </mxCell>
        <mxCell id="zqDdevKlCsOg6nmrmdYi-96" value="" style="shape=umlLifeline;participant=umlActor;perimeter=lifelinePerimeter;whiteSpace=wrap;html=1;container=1;collapsible=0;recursiveResize=0;verticalAlign=top;spacingTop=36;outlineConnect=0;fontSize=22;" vertex="1" parent="1">
          <mxGeometry x="-60" y="128" width="40" height="432" as="geometry" />
        </mxCell>
        <mxCell id="zqDdevKlCsOg6nmrmdYi-113" value="" style="html=1;points=[];perimeter=orthogonalPerimeter;fontSize=24;" vertex="1" parent="zqDdevKlCsOg6nmrmdYi-96">
          <mxGeometry x="16" y="225" width="10" height="80" as="geometry" />
        </mxCell>
        <mxCell id="zqDdevKlCsOg6nmrmdYi-97" value="user" style="text;html=1;strokeColor=none;fillColor=none;align=center;verticalAlign=middle;whiteSpace=wrap;rounded=0;fontSize=28;" vertex="1" parent="1">
          <mxGeometry x="-90" y="90" width="40" height="20" as="geometry" />
        </mxCell>
        <mxCell id="zqDdevKlCsOg6nmrmdYi-98" value="Mobile" style="text;html=1;strokeColor=none;fillColor=none;align=center;verticalAlign=middle;whiteSpace=wrap;rounded=0;fontSize=32;" vertex="1" parent="1">
          <mxGeometry x="435" y="30" width="40" height="20" as="geometry" />
        </mxCell>
        <mxCell id="zqDdevKlCsOg6nmrmdYi-99" value="" style="shape=umlLifeline;participant=umlControl;perimeter=lifelinePerimeter;whiteSpace=wrap;html=1;container=1;collapsible=0;recursiveResize=0;verticalAlign=top;spacingTop=36;outlineConnect=0;fontSize=21;" vertex="1" parent="1">
          <mxGeometry x="920" y="128" width="40" height="422" as="geometry" />
        </mxCell>
        <mxCell id="zqDdevKlCsOg6nmrmdYi-107" value="" style="html=1;points=[];perimeter=orthogonalPerimeter;fontSize=24;" vertex="1" parent="zqDdevKlCsOg6nmrmdYi-99">
          <mxGeometry x="16" y="132" width="10" height="128" as="geometry" />
        </mxCell>
        <mxCell id="zqDdevKlCsOg6nmrmdYi-100" value="FaceRepository" style="text;html=1;strokeColor=none;fillColor=none;align=center;verticalAlign=middle;whiteSpace=wrap;rounded=0;fontSize=28;" vertex="1" parent="1">
          <mxGeometry x="810" y="170" width="40" height="20" as="geometry" />
        </mxCell>
        <mxCell id="zqDdevKlCsOg6nmrmdYi-103" value="FaceBloc" style="shape=umlLifeline;perimeter=lifelinePerimeter;whiteSpace=wrap;html=1;container=1;collapsible=0;recursiveResize=0;outlineConnect=0;fontSize=24;" vertex="1" parent="1">
          <mxGeometry x="395" y="128" width="115" height="422" as="geometry" />
        </mxCell>
        <mxCell id="zqDdevKlCsOg6nmrmdYi-104" value="" style="html=1;points=[];perimeter=orthogonalPerimeter;fontSize=24;" vertex="1" parent="1">
          <mxGeometry x="-45" y="220" width="10" height="80" as="geometry" />
        </mxCell>
        <mxCell id="zqDdevKlCsOg6nmrmdYi-109" value="Person" style="swimlane;fontStyle=0;childLayout=stackLayout;horizontal=1;startSize=26;fillColor=none;horizontalStack=0;resizeParent=1;resizeParentMax=0;resizeLast=0;collapsible=1;marginBottom=0;fontSize=24;" vertex="1" parent="1">
          <mxGeometry x="-70" y="610" width="140" height="78" as="geometry" />
        </mxCell>
        <mxCell id="zqDdevKlCsOg6nmrmdYi-110" value="+ name: String" style="text;strokeColor=none;fillColor=none;align=left;verticalAlign=top;spacingLeft=4;spacingRight=4;overflow=hidden;rotatable=0;points=[[0,0.5],[1,0.5]];portConstraint=eastwest;" vertex="1" parent="zqDdevKlCsOg6nmrmdYi-109">
          <mxGeometry y="26" width="140" height="26" as="geometry" />
        </mxCell>
        <mxCell id="zqDdevKlCsOg6nmrmdYi-111" value="+ imgUrl: String" style="text;strokeColor=none;fillColor=none;align=left;verticalAlign=top;spacingLeft=4;spacingRight=4;overflow=hidden;rotatable=0;points=[[0,0.5],[1,0.5]];portConstraint=eastwest;" vertex="1" parent="zqDdevKlCsOg6nmrmdYi-109">
          <mxGeometry y="52" width="140" height="26" as="geometry" />
        </mxCell>
        <mxCell id="zqDdevKlCsOg6nmrmdYi-117" value="Result Register" style="html=1;verticalAlign=bottom;endArrow=block;fontSize=24;entryX=-0.1;entryY=0.415;entryDx=0;entryDy=0;entryPerimeter=0;" edge="1" parent="1" source="zqDdevKlCsOg6nmrmdYi-99" target="zqDdevKlCsOg6nmrmdYi-113">
          <mxGeometry x="0.1772" y="-16" width="80" relative="1" as="geometry">
            <mxPoint x="550" y="410" as="sourcePoint" />
            <mxPoint x="630" y="410" as="targetPoint" />
            <mxPoint as="offset" />
          </mxGeometry>
        </mxCell>
        <mxCell id="zqDdevKlCsOg6nmrmdYi-118" value="Person Info" style="html=1;verticalAlign=bottom;endArrow=block;fontSize=24;entryX=0.25;entryY=0.408;entryDx=0;entryDy=0;entryPerimeter=0;" edge="1" parent="1" source="zqDdevKlCsOg6nmrmdYi-96" target="zqDdevKlCsOg6nmrmdYi-99">
          <mxGeometry x="-0.1336" y="40" width="80" relative="1" as="geometry">
            <mxPoint x="520" y="400" as="sourcePoint" />
            <mxPoint x="600" y="400" as="targetPoint" />
            <mxPoint as="offset" />
          </mxGeometry>
        </mxCell>
      </root>
    </mxGraphModel>
  </diagram>
</mxfile>
